<?xml version="1.0" encoding="UTF-8"?>
<svg width="16px" height="16px" viewBox="0 0 16 16" version="1.1" xmlns="http://www.w3.org/2000/svg" xmlns:xlink="http://www.w3.org/1999/xlink">
    <title>blocks</title>
    <desc></desc>
    <defs></defs>

    <path d="M5.54893617,16 L0.612765957,16 C0.272340426,16 0,15.7276596 0,15.387234 L0,0.612765957 C0,0.272340426 0.272340426,0 0.612765957,0 L5.54893617,0 C5.8893617,0 6.16170213,0.272340426 6.16170213,0.612765957 L6.16170213,15.387234 C6.16170213,15.7276596 5.8893617,16 5.54893617,16 Z" id="Shape"></path>
    <path d="M15.2510638,5.58297872 L9.46382979,5.58297872 C9.12340426,5.58297872 8.85106383,5.3106383 8.85106383,4.97021277 L8.85106383,0.612765957 C8.85106383,0.272340426 9.12340426,0 9.46382979,0 L15.2510638,0 C15.5914894,0 15.8638298,0.272340426 15.8638298,0.612765957 L15.8638298,5.00425532 C15.8638298,5.3106383 15.5914894,5.58297872 15.2510638,5.58297872 Z" id="Shape"></path>
    <path d="M15.2510638,15.9319149 L9.46382979,15.9319149 C9.12340426,15.9319149 8.85106383,15.6595745 8.85106383,15.3191489 L8.85106383,9.46382979 C8.85106383,9.12340426 9.12340426,8.85106383 9.46382979,8.85106383 L15.2510638,8.85106383 C15.5914894,8.85106383 15.8638298,9.12340426 15.8638298,9.46382979 L15.8638298,15.2851064 C15.8638298,15.6595745 15.5914894,15.9319149 15.2510638,15.9319149 Z" id="Shape"></path>

</svg>
