<?xml version="1.0" encoding="UTF-8"?>
<svg width="47px" height="47px" viewBox="0 0 47 47" version="1.1" xmlns="http://www.w3.org/2000/svg" xmlns:xlink="http://www.w3.org/1999/xlink">
    <title>blocks</title>
    <desc></desc>
    <defs></defs>
    <path fill="#5589A7" d="M16.3,47 L1.8,47 C0.8,47 0,46.2 0,45.2 L0,1.8 C0,0.8 0.8,0 1.8,0 L16.3,0 C17.3,0 18.1,0.8 18.1,1.8 L18.1,45.2 C18.1,46.2 17.3,47 16.3,47 Z" id="Shape"></path>
    <path fill="#5589A7" d="M44.8,16.4 L27.8,16.4 C26.8,16.4 26,15.6 26,14.6 L26,1.8 C26,0.8 26.8,0 27.8,0 L44.8,0 C45.8,0 46.6,0.8 46.6,1.8 L46.6,14.7 C46.6,15.6 45.8,16.4 44.8,16.4 Z" id="Shape"></path>
    <path fill="#5589A7" d="M44.8,46.8 L27.8,46.8 C26.8,46.8 26,46 26,45 L26,27.8 C26,26.8 26.8,26 27.8,26 L44.8,26 C45.8,26 46.6,26.8 46.6,27.8 L46.6,44.9 C46.6,46 45.8,46.8 44.8,46.8 Z" id="Shape"></path>
</svg>
