<?xml version="1.0" encoding="utf-8"?>
<!-- Generator: Adobe Illustrator 19.1.0, SVG Export Plug-In . SVG Version: 6.00 Build 0)  -->
<!DOCTYPE svg PUBLIC "-//W3C//DTD SVG 1.1//EN" "http://www.w3.org/Graphics/SVG/1.1/DTD/svg11.dtd">
<svg version="1.1" id="Layer_1" xmlns="http://www.w3.org/2000/svg" xmlns:xlink="http://www.w3.org/1999/xlink" x="0px" y="0px"
	 viewBox="-486.5 355.5 47 47" style="enable-background:new -486.5 355.5 47 47;" xml:space="preserve">
<g>
	<path d="M-470.2,402.5h-14.5c-1,0-1.8-0.8-1.8-1.8v-43.4c0-1,0.8-1.8,1.8-1.8h14.5c1,0,1.8,0.8,1.8,1.8v43.4
		C-468.4,401.7-469.2,402.5-470.2,402.5z"/>
	<path d="M-441.3,371.9h-17c-1,0-1.8-0.8-1.8-1.8v-12.8c0-1,0.8-1.8,1.8-1.8h17c1,0,1.8,0.8,1.8,1.8v12.9
		C-439.5,371.1-440.3,371.9-441.3,371.9z"/>
	<path d="M-441.3,401.4h-17c-1,0-1.8-0.8-1.8-1.8v-17.2c0-1,0.8-1.8,1.8-1.8h17c1,0,1.8,0.8,1.8,1.8v17.1
		C-439.5,400.6-440.3,401.4-441.3,401.4z"/>
</g>
</svg>
