<!-- Generated by IcoMoon.io -->
<svg version="1.1" xmlns="http://www.w3.org/2000/svg" width="16" height="16" viewBox="0 0 16 16">
<title>list-ul</title>
<path d="M3.429 12.571c0 0.946-0.768 1.714-1.714 1.714s-1.714-0.768-1.714-1.714 0.768-1.714 1.714-1.714 1.714 0.768 1.714 1.714zM3.429 8c0 0.946-0.768 1.714-1.714 1.714s-1.714-0.768-1.714-1.714 0.768-1.714 1.714-1.714 1.714 0.768 1.714 1.714zM16 11.714v1.714c0 0.152-0.134 0.286-0.286 0.286h-10.857c-0.152 0-0.286-0.134-0.286-0.286v-1.714c0-0.152 0.134-0.286 0.286-0.286h10.857c0.152 0 0.286 0.134 0.286 0.286zM3.429 3.429c0 0.946-0.768 1.714-1.714 1.714s-1.714-0.768-1.714-1.714 0.768-1.714 1.714-1.714 1.714 0.768 1.714 1.714zM16 7.143v1.714c0 0.152-0.134 0.286-0.286 0.286h-10.857c-0.152 0-0.286-0.134-0.286-0.286v-1.714c0-0.152 0.134-0.286 0.286-0.286h10.857c0.152 0 0.286 0.134 0.286 0.286zM16 2.571v1.714c0 0.152-0.134 0.286-0.286 0.286h-10.857c-0.152 0-0.286-0.134-0.286-0.286v-1.714c0-0.152 0.134-0.286 0.286-0.286h10.857c0.152 0 0.286 0.134 0.286 0.286z"></path>
</svg>
