<svg width="16" height="10" viewBox="0 0 16 10" xmlns="http://www.w3.org/2000/svg" xmlns:xlink="http://www.w3.org/1999/xlink"><title>Virtual</title><defs><path d="M10.344.656c1.844 0 3.313 1.5 3.313 3.344 0 1.844-1.469 3.344-3.313 3.344H7.656V6.063h2.688A2.082 2.082 0 0 0 12.407 4a2.082 2.082 0 0 0-2.063-2.063H7.656V.656h2.688zm-6 4V3.343h5.313v1.313H4.344zM1.594 4c0 1.125.938 2.063 2.063 2.063h2.688v1.281H3.657C1.813 7.344.344 5.844.344 4 .344 2.156 1.813.656 3.657.656h2.688v1.281H3.657A2.082 2.082 0 0 0 1.594 4z" id="a"/></defs><g transform="translate(1 1)" fill-rule="nonzero" fill="none"><use fill="#0062AB" fill-rule="evenodd" xlink:href="#a"/><path stroke="#FFF" d="M10.344.156c2.116 0 3.813 1.72 3.813 3.844 0 2.125-1.697 3.844-3.813 3.844H7.156V5.563h3.188c.849 0 1.563-.714 1.563-1.563s-.714-1.563-1.563-1.563H7.156V.156h3.188zm-6.5 5V2.843h6.313v2.313H3.844zM2.094 4c0 .849.714 1.563 1.563 1.563h3.188v2.281H3.657C1.541 7.844-.156 6.124-.156 4c0-2.125 1.697-3.844 3.813-3.844h3.188v2.281H3.657c-.849 0-1.563.714-1.563 1.563z"/></g></svg>